<?xml version="1.0" encoding="utf-8"?>
<!-- Generator: Adobe Illustrator 26.0.3, SVG Export Plug-In . SVG Version: 6.00 Build 0)  -->
<svg version="1.1" id="Layer_1" xmlns="http://www.w3.org/2000/svg" xmlns:xlink="http://www.w3.org/1999/xlink" x="0px" y="0px"
	 viewBox="0 0 2000.16 2000.16" style="enable-background:new 0 0 2000.16 2000.16;" xml:space="preserve">
<style type="text/css">
	.st0{fill:url(#SVGID_1_);}
	.st1{fill:url(#SVGID_00000067215767620666953850000010802602334185320368_);}
	.st2{fill:url(#SVGID_00000123433509807463664180000000287121962402694836_);}
	.st3{fill:url(#SVGID_00000145053865833090397300000015530912357720119743_);}
</style>
<g>
	<radialGradient id="SVGID_1_" cx="1110.7482" cy="1041.8416" r="878.053" gradientUnits="userSpaceOnUse">
		<stop  offset="0.0452" style="stop-color:#FDD200"/>
		<stop  offset="0.159" style="stop-color:#FCD205"/>
		<stop  offset="0.999" style="stop-color:#E56517"/>
	</radialGradient>
	<circle class="st0" cx="1110.75" cy="1041.84" r="861.33"/>
	
		<radialGradient id="SVGID_00000122689948818869928820000017078617313498974365_" cx="1136.2935" cy="654.0495" r="1549.498" gradientUnits="userSpaceOnUse">
		<stop  offset="0.3932" style="stop-color:#BC252C;stop-opacity:0"/>
		<stop  offset="0.7632" style="stop-color:#BC252C"/>
	</radialGradient>
	<circle style="fill:url(#SVGID_00000122689948818869928820000017078617313498974365_);" cx="1110.75" cy="1041.84" r="861.33"/>
	
		<linearGradient id="SVGID_00000028308015762661420400000005812214337381139348_" gradientUnits="userSpaceOnUse" x1="1083.7557" y1="1896.5621" x2="1104.6365" y2="1529.0605">
		<stop  offset="0.1513" style="stop-color:#B9222E"/>
		<stop  offset="1" style="stop-color:#CD4523"/>
	</linearGradient>
	<path style="fill:url(#SVGID_00000028308015762661420400000005812214337381139348_);" d="M1178.98,1625.79
		c-93.48-9.53-291.31-33.81-525.53-86.63c-179.53-40.49-269.74-83.91-314.62-114.85c23.82,47.99,51.97,93.46,83.97,135.86
		c98.81,17.08,334.71,57.74,443.38,75.56c6.35,1.04,5.97,10.29-0.45,10.83c-207.03,17.48-264.6,28.76-411.04-46.67
		c65.69,77.15,144.73,142.56,233.57,192.66c-0.28-27.4,29.84-46.85,126.68-75.21c99.27-29.08,274.4-61.05,364.58-76.66
		C1188.13,1639.19,1187.69,1626.67,1178.98,1625.79z M1110.75,1846.8c56.14,19.11,121.57,32.29,167.33,40.08
		c64.89-12.78,127.18-32.8,185.96-59.27c-32.83,2.63-66.73,4.62-99.24,5.27c-137.81,2.78-139.21-16.7,0-43.15
		c86.63-16.46,175.39-28.6,230.1-35.43c37.32-25.41,72.53-53.69,105.34-84.5c-129.45,20.66-392.54,67.04-551.2,94.88
		C990.34,1792.51,1012.61,1813.39,1110.75,1846.8z M1407.28,1519.66c-2.06,38.98,162.15,51.51,272.12,66.82
		c34.55,4.81,62.23,12.78,79.93,22.09c48.43-55.38,89.86-117.03,122.96-183.55C1679.67,1496.28,1409.09,1485.44,1407.28,1519.66z"/>
	
		<linearGradient id="SVGID_00000109710622139918975320000007835223111836612746_" gradientUnits="userSpaceOnUse" x1="1000.08" y1="1888.5569" x2="1000.08" y2="126.2197">
		<stop  offset="0.0462" style="stop-color:#1570B9"/>
		<stop  offset="0.2949" style="stop-color:#192F85"/>
	</linearGradient>
	<path style="fill:url(#SVGID_00000109710622139918975320000007835223111836612746_);" d="M866.19,1635.72
		c-108.67-17.83-344.57-58.49-443.38-75.56c10.24,13.57,20.88,26.81,31.88,39.73c146.45,75.42,204.01,64.14,411.04,46.67
		C872.15,1646.01,872.54,1636.76,866.19,1635.72z M1882.29,1425.02c57.43-115.42,89.79-245.51,89.79-383.18
		c0-234.07-93.4-446.31-244.93-601.55c-7.45-14.86-18.07-35.97-19.73-38.97c31.84,27.14,42.81,52.2,42.81,52.2
		s-8.35-34.98-9.92-40.72c28.19,33.41,30.69,58.17,43.85,83.52c1.04-31.32,0-53.25,0-53.25s38.11,41.76,46.98,102.32
		c2.09-37.06,3.13-43.33,3.13-43.33s18.79,46.46,21.4,86.13c21.4-77.78,24.53-121.11-31.32-178.01
		c-55.86-56.9-118.21-61.05-179.17-43.84c-1.45-34.99,60.15-55.87,60.15-55.87s-29.76-6.79-39.15-7.83
		c30.28-7.83,65.77-7.31,65.77-7.31s-24.54-10.96-40.72-12.01c29.23-9.4,91.88,0,91.88,0s-26.1-24.01-47.5-26.1
		c69.43-4.7,116.41,7.83,116.41,7.83s-24.01-16.7-32.89-20.36c58.99,11.48,78.82,20.36,78.82,20.36s-43.33-63.69-122.67-64.73
		c-79.35-1.04-130.5,51.68-164.96,109.62c3.13-30.8,16.7-47.5,16.7-47.5l-14.62,10.44l9.92-66.3l-16.18,10.96l24.54-51.68
		l-24.01,12.01c0,0,27.67-25.06,34.98-80.91c-54.81,26.1-66.82,50.64-73.08,61.08c-2.61-25.58-2.61-25.58-2.61-25.58
		s-23.49,28.19-26.1,79.35c-13.57-19.84-13.57-19.84-13.57-19.84s4.18,37.59,19.31,73.08c-14.09-12.01-14.09-12.01-14.09-12.01
		l32.89,69.95c0,0-68.91-47.5-156.08-21.92c-87.18,25.58-102.32,114.84-107.54,150.86c31.84-51.16,56.38-69.95,56.38-69.95
		l-17.75,39.67c0,0,39.67-50.64,94.49-67.86c-32.89,43.85-32.89,43.85-32.89,43.85s44.89-37.59,77.26-49.07
		c-29.76,30.8-29.76,30.8-29.76,30.8s35.5-25.06,64.21-29.23c-25.06,28.71-25.06,28.71-25.06,28.71s29.75-13.05,88.22-8.35
		c0,9.92,0,9.92,0,9.92s-85.61-9.92-150.34,68.38c-64.73,78.3-48.55,145.64-15.14,199.93c2.09-65.25,9.4-88.74,9.4-88.74
		s3.65,31.32,6.26,45.94c3.13-72.56,28.19-113.8,28.19-113.8l11.48,52.72c8.35-77.78,27.67-92.92,27.67-92.92s-3.13,26.1-2.09,44.37
		c9.92-40.2,31.32-61.08,31.32-61.08l-6.79,39.67c0,0,37.06-66.82,80.39-70.99c0,0-25.58,40.2-22.45,98.14
		c4.18-12.53,8.87-16.18,8.87-16.18s0,53.77,21.4,95.01c4.7-6.26,4.7-6.26,4.7-6.26s20.88,66.3,113.28,92.4
		c-20.88-83-34.45-113.8-34.45-113.8l11.48,9.4c0,0-11.48-42.28-18.79-56.38c12.01,2.61,12.01,2.61,12.01,2.61
		s-22.71-49.07-44.5-73.08c5.46,0.92,9.82,1.66,13.34,2.26c68.17,56.7,228.35,226.14,243.1,575.46
		c12.53,215.23-112.76,290.4-235.95,384.37l-273.54,4.18c0,0,108.58-150.34-62.64-296.51c100.23-54.29,139.9-123.2,135.72-215.07
		c-4.18-91.88-79.35-143.38-185.14-176.79l2.78-59.86h-87.7l-8.35,55.68h-100.23v-46.2c0-6.77-5.49-12.27-12.27-12.27h-60.59
		c-6.12,0-11.3,4.5-12.15,10.56l-6.33,45.12h-99.05c-11.6,0-21.66,8.01-24.26,19.31l-155.64,676.02c0,0-147.56,0-178.18,0
		c-30.63,0-105.8-6.26-158.69-148.25c-50.9-136.62-83.71-280.64-40.24-411.15l1.09,11.81l6.79-15.66l8.35,63.69l7.83-24.01
		c0,0,29.23,112.23,32.89,126.85c57.94-80.39,46.46-143.03,46.46-143.03l10.44,4.7c0,0-10.96-62.64-29.76-91.88
		C441,777.7,441,777.7,441,777.7s-33.41-46.29-71.52-74.65c27.14,1.57,66.82,28.19,86.13,47.5c-3.13-31.84-3.13-31.84-3.13-31.84
		s17.75,4.18,32.37,54.81c6.26-25.58,0-44.37,0-44.37s25.06,29.23,34.98,90.83c6.26-45.42,3.65-58.47,3.65-58.47
		s39.67,50.11,40.72,114.84c6.26-32.89,5.74-43.85,5.74-43.85s17.75,16.7,14.62,89.79c20.36-48.55,40.72-128.94-21.4-192.63
		c-62.12-63.69-128.42-67.34-197.32-54.29c2.61-22.45,46.46-44.89,79.87-51.68c-28.71-5.22-35.5-12.01-35.5-12.01
		s28.71-9.4,77.26-3.65c-24.53-10.96-50.11-14.09-50.11-14.09s53.77-9.92,102.32,7.83c-32.89-21.92-49.59-29.23-49.59-29.23
		s63.69-4.7,127.37,16.18c-28.19-21.4-39.15-25.06-39.15-25.06s51.16,10.96,77.26,27.15c-35.5-44.37-80.91-85.09-161.83-74.65
		c-80.91,10.44-137.81,97.62-137.81,97.62s0-55.33-9.4-78.82c-3.65,18.27-3.65,18.27-3.65,18.27s-0.9-45.42-21.33-71.52
		c-2.68,18.79-2.68,18.79-2.68,18.79s-25.58-37.59-67.34-54.29c15.14,20.88,15.14,20.88,15.14,20.88s-25.58-16.18-95.01-9.4
		c28.71,31.84,51.16,43.33,71.52,47.5c-15.14,4.18-26.62,3.65-26.62,3.65s17.75,23.49,42.28,31.84
		c-13.05,2.61-13.05,2.61-13.05,2.61s16.18,29.76,45.42,53.77c-21.4-2.61-21.4-2.61-21.4-2.61s17.23,14.09,30.8,28.19
		C155.45,554.8,48.44,604.39,28.08,746.38c44.89-54.29,61.6-68.91,61.6-68.91L70.89,716.1c0,0,57.94-55.33,102.84-66.82
		c-37.59,43.33-37.59,43.33-37.59,43.33s51.16-39.67,93.96-47.5c-41.24,32.37-41.24,32.37-41.24,32.37s36.54-26.62,69.95-26.1
		c-32.89,27.67-32.89,27.67-32.89,27.67s69.43-15.14,80.39,14.62c-101.79,31.84-132.59,92.4-141.99,159.74
		s22.45,107.01,69.43,143.56c-26.1-65.25-24.53-80.91-24.53-80.91l24.53,34.98c-19.31-62.12-15.66-100.75-7.83-117.98
		c12.01,34.45,23.49,44.89,23.49,44.89s-10.44-51.68,0-92.4c8.87,39.67,8.87,39.67,8.87,39.67s-7.31-40.2,12.53-63.16
		c2.54,18.36,7.07,31.81,12.03,41.65c-21.72,75.64-33.43,155.52-33.43,238.15c0,137.38,32.22,267.22,89.43,382.46
		c44.87,30.94,135.09,74.36,314.62,114.85c234.22,52.82,432.05,77.1,525.53,86.63c8.7,0.89,9.15,13.4,0.53,14.89
		c-90.18,15.61-265.3,47.58-364.58,76.66c-96.84,28.37-126.96,47.81-126.68,75.21c124.83,70.41,268.95,110.63,422.49,110.63
		c57.26,0,113.2-5.64,167.33-16.3c-45.76-7.79-111.2-20.97-167.33-40.08c-98.14-33.41-120.41-54.29,38.28-82.13
		c158.66-27.83,421.75-74.22,551.2-94.88c20.68-19.42,40.41-39.85,59.1-61.21c-17.7-9.31-45.38-17.28-79.93-22.09
		c-109.97-15.31-274.18-27.84-272.12-66.82C1409.09,1485.44,1679.67,1496.28,1882.29,1425.02z M1239.51,1273.5
		c-11.14,82.36-70.99,88.86-167.05,93.04c-96.05,4.18-153.13,0-153.13,0l48.72-187.93c0,0,33.41,0,111.36,0
		C1157.38,1178.61,1250.65,1191.14,1239.51,1273.5z M1162.95,1036.27c-62.64,2.44-165.12-6.61-165.12-6.61l35.65-162.87
		c0,0,16.71,0,120.07,0s128.42,34.11,128.42,84.95C1281.97,1002.58,1225.59,1033.84,1162.95,1036.27z M1364.8,1832.87
		c32.51-0.66,66.41-2.64,99.24-5.27c45.9-20.67,89.65-45.26,130.86-73.31c-54.71,6.83-143.47,18.97-230.1,35.43
		C1225.59,1816.17,1226.98,1835.66,1364.8,1832.87z"/>
</g>
</svg>
