<svg xmlns="http://www.w3.org/2000/svg" viewBox="0 0 150 40.89"><defs><style>.cls-1{fill:#202d3d;}.cls-2{fill:#ffaf44;}</style></defs><g id="Layer_2" data-name="Layer 2"><g id="Layer_1-2" data-name="Layer 1"><polygon class="cls-1" points="83.96 13.38 83.96 13.38 83.96 18.53 83.96 18.53 83.96 22.38 83.96 22.38 83.96 31.37 87.8 31.37 87.8 22.38 97.04 22.38 97.04 18.76 87.8 18.76 87.8 13.15 99.52 13.15 99.52 9.54 83.96 9.54 83.96 13.38"/><polygon class="cls-1" points="108.24 9.54 104.4 9.54 104.4 27.53 104.4 27.53 104.4 31.37 116.57 31.37 116.57 27.76 108.24 27.76 108.24 9.54"/><rect class="cls-1" x="121.31" y="9.54" width="3.84" height="21.84"/><path class="cls-1" d="M142.64,9.54H130.86v3.84h0v7h0v3.84h0v7.11h3.84V24.26h7.94a7.36,7.36,0,1,0,0-14.72Zm0,11.1H134.7V13.15h7.94a3.75,3.75,0,0,1,0,7.49Z"/><path class="cls-2" d="M22.75,7.54l-2.42-3a20.43,20.43,0,0,1,25.73,0l-2.42,3a16.59,16.59,0,0,0-20.89,0ZM33.2,37.05a16.55,16.55,0,0,1-10.45-3.7l-2.42,3a20.43,20.43,0,0,0,25.73,0l-2.42-3A16.52,16.52,0,0,1,33.2,37.05Z"/><path class="cls-1" d="M11.71,28.5a7.87,7.87,0,1,1,5-14l2.42-3a11.7,11.7,0,1,0,0,18.17l-2.43-3A7.8,7.8,0,0,1,11.71,28.5Z"/><rect class="cls-1" x="48.94" y="9.54" width="3.84" height="21.84"/><polygon class="cls-1" points="73.96 25.31 62.33 9.54 58.48 9.54 58.48 31.37 62.33 31.37 62.33 15.77 73.96 31.37 77.8 31.37 77.8 9.54 73.96 9.54 73.96 25.31"/><path class="cls-1" d="M33.2,12.58a7.86,7.86,0,0,1,6.06,12.88h4.52a11.7,11.7,0,0,0-18-14.11l2.42,3A7.8,7.8,0,0,1,33.2,12.58Z"/><path class="cls-1" d="M33.2,28.31a7.86,7.86,0,0,1-6.06-12.88H22.62a11.54,11.54,0,0,0-1.13,5,11.7,11.7,0,0,0,19.07,9.1l-2.41-3A7.87,7.87,0,0,1,33.2,28.31Z"/></g></g></svg>